<svg width="111" height="40" fill="none" xmlns="http://www.w3.org/2000/svg"><path d="M45.016 14.678h3.747v16.797h-3.747V14.678Zm36.435 5.925v10.872h-3.749v-9.706c0-2.837-1.054-4.41-4.057-4.41-2.97 0-4.184 1.891-4.184 4.41v9.706h-3.748v-9.706c0-2.837-1.086-4.41-4.057-4.41s-4.185 1.891-4.185 4.41v9.706h-3.746V14.678h3.748v2.458c.639-1.103 2.268-2.93 5.59-2.93 2.939 0 4.674 1.07 5.632 2.93.863-1.135 2.971-2.93 6.39-2.93 4.44 0 6.367 2.489 6.367 6.397Zm22.14 3.718H88.549c.447 2.868 2.235 4.47 5.81 4.47 3.322 0 4.436-1.287 5.01-2.485h3.742c-.863 3.436-4.185 5.642-8.754 5.642-4.855 0-9.647-2.742-9.647-8.855 0-6.02 4.696-8.887 9.583-8.887 5.401 0 9.745 3.151 9.298 10.115Zm-3.806-2.836c-.51-2.647-2.072-4.124-5.49-4.124-3.16 0-5.043 1.477-5.65 4.124h11.14Zm7.345 4.041-.731-16.111h3.749l-.731 16.111h-2.287Z" fill="#111"/><path d="M110.379 29.773c0 .41-.124.812-.355 1.154a2.101 2.101 0 0 1-.943.766c-.385.158-.808.2-1.217.121a2.116 2.116 0 0 1-1.079-.565 2.057 2.057 0 0 1-.467-2.262c.157-.38.425-.706.77-.936a2.125 2.125 0 0 1 3.129.923c.107.253.162.525.162.8ZM20.986 40c11.197 0 20.274-8.954 20.274-20S32.183 0 20.986 0C9.79 0 .713 8.954.713 20s9.076 20 20.273 20Z" fill="#5DF591"/><path d="M19.878 29.209a2.45 2.45 0 0 0-1.317.502 2.4 2.4 0 0 0-.812 1.14 2.36 2.36 0 0 0-.034 1.392c.128.457.391.866.756 1.176a2.461 2.461 0 0 0 2.682.325 2.41 2.41 0 0 0 1.022-.96 2.372 2.372 0 0 0-.529-3 2.455 2.455 0 0 0-1.768-.575Zm9.927-18.035.01.01.016.015-.026-.025Zm0 0Z" fill="#111"/><path d="M29.815 11.184a12.21 12.21 0 0 0-5.91-3.117 11.986 11.986 0 0 0-2.122-.216c-2.139-.026-4.356.522-6.56 1.683l-2.312 1.235-5.394 3.05 8.53 14.576 3.238-1.847-6.676-11.414s4.257-2.258 4.33-2.3a8.506 8.506 0 0 1 6.37-.827 8.438 8.438 0 0 1 2.937 1.429 8.315 8.315 0 0 1 2.16 2.429 8.173 8.173 0 0 1 .838 6.283 8.236 8.236 0 0 1-1.448 2.898 8.359 8.359 0 0 1-2.463 2.13c-.14.083-1.576.903-1.728.983l1.822 3.122c.188-.09 1.565-.864 1.75-.964l.204-.12a19.3 19.3 0 0 0 1.954-1.355 11.984 11.984 0 0 0 3.779-6.025 11.854 11.854 0 0 0-.323-7.078 14.012 14.012 0 0 0-.694-1.485 12.948 12.948 0 0 0-2.282-3.07Zm19.183-.754c0 .41-.124.812-.356 1.153-.231.341-.56.607-.945.765a2.136 2.136 0 0 1-2.294-.447 2.054 2.054 0 0 1-.465-2.262c.157-.38.425-.705.77-.936a2.129 2.129 0 0 1 2.669.249 2.08 2.08 0 0 1 .621 1.478Z" fill="#111"/></svg>