<svg width="127" height="28" viewBox="0 0 127 28" fill="none" xmlns="http://www.w3.org/2000/svg">
<path d="M4.55503 10.0511L2.27751 12.3208L0 10.0511L2.27751 7.78154L4.55503 10.0511ZM10.0861 4.53923L13.9904 8.43L16.268 6.16038L10.0861 0L3.90432 6.16038L6.18182 8.42999L10.0861 4.53923ZM17.8948 7.78154L15.6172 10.0511L17.8948 12.3208L20.1723 10.0511L17.8948 7.78154ZM10.0861 15.5631L6.18182 11.6723L3.90432 13.9419L10.0861 20.1023L16.268 13.9419L13.9904 11.6723L10.0861 15.5631ZM10.0861 12.3208L12.3637 10.0511L10.0861 7.78154L7.80863 10.0511L10.0861 12.3208ZM34.1301 12.5394V12.5079C34.1301 11.0274 33.3401 10.2873 32.0599 9.79912C32.85 9.35811 33.5139 8.66534 33.5139 7.42119V7.38967C33.5139 5.65733 32.1232 4.53922 29.8633 4.53922H24.7273V15.563H29.9898C32.4866 15.5631 34.1301 14.5552 34.1301 12.5394ZM31.0959 7.83069C31.0959 8.64951 30.4163 8.99599 29.3418 8.99599H27.0978V6.66524H29.4997C30.527 6.66524 31.0959 7.07473 31.0959 7.79918V7.83069ZM31.7123 12.2401C31.7123 13.0591 31.0643 13.4371 29.9898 13.4371H27.0978V11.0118H29.9107C31.1591 11.0118 31.7123 11.4685 31.7123 12.2086V12.2401ZM39.2337 15.5631V4.53923H36.7999V15.5631H39.2337ZM52.3159 15.5631V4.53923H49.9138V11.3267L44.7303 4.53923H42.4863V15.5631H44.8884V8.55498L50.2457 15.5631L52.3159 15.5631ZM65.7968 15.5631L61.0558 4.46053H58.8118L54.0708 15.5631H56.5519L57.5633 13.0906H62.241L63.2524 15.5631H65.7968ZM61.3718 10.9487H58.4325L59.9022 7.37384L61.3718 10.9487ZM77.3972 15.5631V4.53923H74.9949V11.3267L69.8116 4.53923H67.5676V15.5631H69.9695V8.55498L75.3269 15.5631L77.3972 15.5631ZM89.9614 13.7835L88.4128 12.2244C87.5436 13.0119 86.7692 13.5158 85.505 13.5158C83.6085 13.5158 82.2968 11.941 82.2968 10.0511V10.0197C82.2968 8.12981 83.6401 6.58653 85.505 6.58653C86.6111 6.58653 87.4803 7.05888 88.3338 7.83069L89.8824 6.05099C88.8553 5.04309 87.6066 4.35015 85.5207 4.35015C82.123 4.35015 79.7525 6.91716 79.7525 10.0511V10.0826C79.7525 13.248 82.1705 15.752 85.4259 15.752C87.5593 15.752 88.8235 14.9962 89.9614 13.7835ZM100.345 15.5631V13.4055H94.3396V11.0905H99.5547V8.93296H94.3396V6.69674H100.266V4.53923H91.9218V15.5631L100.345 15.5631Z" fill="#F0B90B"/>
<path d="M111.421 5.64667H115.126V4.49963H106.454V5.64667H110.16V15.4986H111.421V5.64667Z" fill="#F0B90B"/>
<path d="M125.083 10.5491V15.4986H126.328V4.49963H125.083V9.38631H118.713V4.49963H117.467V15.4986H118.713V10.5491H125.083Z" fill="#F0B90B"/>
<path d="M89.9291 23.108V23.8638H87.2084V25.1142H89.6199V25.87H87.2084V27.1617H89.9635V27.9174H86.3633V23.108H89.9291Z" fill="#0B0E11"/>
<path d="M85.4751 27.148C84.9735 27.6702 84.4239 27.9999 83.5238 27.9999C82.1222 27.9999 81.0779 26.9075 81.0779 25.5197C81.0779 24.1455 82.1016 23.0256 83.5582 23.0256C84.4445 23.0256 84.9804 23.3348 85.4407 23.7745L84.8979 24.3998C84.5132 24.0425 84.1009 23.802 83.5513 23.802C82.6306 23.802 81.9642 24.5578 81.9642 25.5059C81.9642 26.4541 82.6306 27.2236 83.5513 27.2236C84.1422 27.2236 84.52 26.9831 84.9323 26.5983L85.4751 27.148Z" fill="#0B0E11"/>
<path d="M79.2225 26.4334V23.108H80.0538V27.9174H79.3462L76.6941 24.4959V27.9174H75.8628V23.108H76.646L79.2225 26.4334Z" fill="#0B0E11"/>
<path d="M72.922 23.0737L75.0381 27.9175H74.1449L73.6571 26.7564H71.383L70.8883 27.9175H70.0226L72.1387 23.0737H72.922ZM73.3479 26.0075L72.5166 24.0837L71.6921 26.0075H73.3479Z" fill="#0B0E11"/>
<path d="M68.3664 26.4334V23.108H69.1978V27.9174H68.4901L65.8381 24.4959V27.9174H65.0067V23.108H65.79L68.3664 26.4334Z" fill="#0B0E11"/>
<path d="M62.8743 23.108H63.7193V27.9174H62.8743V23.108Z" fill="#0B0E11"/>
<path d="M60.0252 23.108C60.9939 23.108 61.6054 23.5821 61.6054 24.3379C61.6054 24.9287 61.2756 25.231 60.9183 25.4166C61.4817 25.6089 61.8734 25.9318 61.8734 26.5914C61.8734 27.4571 61.1657 27.9174 60.0939 27.9174H57.8678V23.108H60.0252ZM59.8534 25.1349C60.3962 25.1349 60.7603 24.9219 60.7603 24.4753C60.7603 24.0837 60.458 23.8569 59.9152 23.8569H58.6991V25.1349H59.8534ZM60.1007 27.1686C60.6779 27.1686 61.0283 26.9418 61.0283 26.5021C61.0283 26.0899 60.7054 25.8494 60.0389 25.8494H58.6991V27.1686H60.1007Z" fill="#0B0E11"/>
<path d="M54.8787 23.108V23.8775H52.1442V25.1898H54.5695V25.9593H52.1442V27.9174H51.2991V23.108H54.8787Z" fill="#0B0E11"/>
<path d="M47.0453 27.9174V23.108H47.8904V27.1479H50.4188V27.9174H47.0453Z" fill="#0B0E11"/>
<path d="M45.8853 23.108V25.8357C45.8853 27.2716 45.0745 27.993 43.8172 27.993C42.5668 27.993 41.7698 27.2716 41.7698 25.8769V23.108H42.6149V25.8425C42.6149 26.7357 43.0752 27.2166 43.831 27.2166C44.5798 27.2166 45.0402 26.7632 45.0402 25.8769V23.108H45.8853Z" fill="#0B0E11"/>
<path d="M40.7449 27.251C40.2708 27.6564 39.5906 27.9999 38.7387 27.9999C37.234 27.9999 36.2446 26.9281 36.2446 25.5197C36.2446 24.1662 37.2752 23.0256 38.7249 23.0256C39.5631 23.0256 40.0784 23.2592 40.5731 23.6783L40.0372 24.3173C39.6662 24.0013 39.302 23.802 38.6906 23.802C37.8043 23.802 37.1309 24.5715 37.1309 25.5059C37.1309 26.5022 37.7836 27.2304 38.7661 27.2304C39.2196 27.2304 39.6318 27.0862 39.9273 26.8663V25.9662H38.6974V25.2311H40.7449V27.251Z" fill="#0B0E11"/>
<path d="M31.747 26.0006V27.9174H30.895V26.0212L28.985 23.108H29.9812L31.3279 25.2379L32.6882 23.108H33.657L31.747 26.0006Z" fill="#0B0E11"/>
<path d="M26.8866 23.108C27.8554 23.108 28.4668 23.5821 28.4668 24.3379C28.4668 24.9287 28.1371 25.231 27.7798 25.4166C28.3432 25.6089 28.7348 25.9318 28.7348 26.5914C28.7348 27.4571 28.0271 27.9174 26.9553 27.9174H24.7292V23.108H26.8866ZM26.7148 25.1349C27.2576 25.1349 27.6218 24.9219 27.6218 24.4753C27.6218 24.0837 27.3195 23.8569 26.7767 23.8569H25.5606V25.1349H26.7148ZM26.9622 27.1686C27.5393 27.1686 27.8897 26.9418 27.8897 26.5021C27.8897 26.0899 27.5668 25.8494 26.9004 25.8494H25.5606V27.1686H26.9622Z" fill="#0B0E11"/>
</svg>
